<?xml version="1.0" encoding="iso-8859-1"?>
<!-- Generator: Adobe Illustrator 18.1.1, SVG Export Plug-In . SVG Version: 6.00 Build 0)  -->
<svg version="1.1" id="Capa_1" xmlns="http://www.w3.org/2000/svg" xmlns:xlink="http://www.w3.org/1999/xlink" x="0px" y="0px"
	 viewBox="0 0 28.902 28.902" style="enable-background:new 0 0 28.902 28.902;" xml:space="preserve">
<g>
	<g id="c19_health">
		<path id="_x3C_Compound_Path_x3E__5_" style="fill:#030104;" d="M24.783,5.725h-2.605V4.123c0-2.269-1.854-4.122-4.119-4.122
			h-7.211c-2.266,0-4.123,1.853-4.123,4.122v1.603H4.123C1.854,5.725,0,7.294,0,9.56v15.221c0,2.266,1.854,4.12,4.123,4.12h20.66
			c2.266,0,4.119-1.854,4.119-4.12V9.56C28.902,7.294,27.049,5.725,24.783,5.725z M8.934,4.123c0-1.012,0.902-1.915,1.914-1.915
			h7.211c1.008,0,1.912,0.902,1.912,1.915v1.603H8.934V4.123z M21.074,20.071h-4.416v4.416h-4.412v-4.416H7.83v-5.518h4.416v-4.412
			h4.412v4.413h4.416C21.074,14.554,21.074,20.071,21.074,20.071z"/>
	</g>
</g>
<g>
</g>
<g>
</g>
<g>
</g>
<g>
</g>
<g>
</g>
<g>
</g>
<g>
</g>
<g>
</g>
<g>
</g>
<g>
</g>
<g>
</g>
<g>
</g>
<g>
</g>
<g>
</g>
<g>
</g>
</svg>
